<svg width="24" height="24" viewBox="0 0 24 24" fill="none" xmlns="http://www.w3.org/2000/svg">
<path d="M18.7466 21.8401H5.08349C3.87073 21.8401 2.8833 20.8526 2.8833 19.6398V5.97679C2.8833 4.76403 3.87073 3.77649 5.08349 3.77649H18.7466C19.9612 3.77649 20.9468 4.76403 20.9468 5.97679V19.6398C20.9486 20.8544 19.9612 21.8401 18.7466 21.8401ZM5.08349 4.67569C4.36627 4.67569 3.78212 5.25957 3.78212 5.97679V19.6398C3.78212 20.3571 4.36627 20.9409 5.08349 20.9409H18.7466C19.4638 20.9409 20.0493 20.3571 20.0493 19.6398V5.97679C20.0493 5.25957 19.4656 4.67569 18.7466 4.67569H5.08349Z" fill="#5F6B8A"/>
<path d="M8.09402 6.11382C7.84534 6.11382 7.64526 5.91201 7.64526 5.66512V2.60885C7.64526 2.36017 7.84713 2.16016 8.09402 2.16016C8.34088 2.16016 8.54451 2.36197 8.54451 2.60885V5.66512C8.54272 5.91201 8.34088 6.11382 8.09402 6.11382Z" fill="#5F6B8A"/>
<path d="M15.6666 6.1137C15.4179 6.1137 15.2161 5.91188 15.2161 5.66502V2.60873C15.2161 2.36005 15.4179 2.16003 15.6666 2.16003C15.9152 2.16003 16.1153 2.36185 16.1153 2.60873V5.66502C16.1171 5.91188 15.9152 6.1137 15.6666 6.1137Z" fill="#5F6B8A"/>
<path d="M20.4968 8.85608H3.33039C3.08171 8.85608 2.87988 8.65426 2.87988 8.40737C2.87988 8.16049 3.08171 7.95862 3.33039 7.95862H20.4968C20.7455 7.95862 20.9473 8.16049 20.9473 8.40737C20.9473 8.65426 20.7455 8.85608 20.4968 8.85608Z" fill="#5F6B8A"/>
</svg>
