<svg width="20" height="20" viewBox="0 0 20 20" fill="none" xmlns="http://www.w3.org/2000/svg">
<rect width="20" height="20" fill="#F2F2F2"/>
<rect width="1440" height="1024" transform="translate(-853 -459)" fill="white"/>
<path d="M-332.75 -185C-332.75 -189.28 -329.28 -192.75 -325 -192.75H59C63.2802 -192.75 66.75 -189.28 66.75 -185V169C66.75 173.28 63.2802 176.75 59 176.75H-325C-329.28 176.75 -332.75 173.28 -332.75 169V-185Z" fill="#F9F9FD" stroke="#ECEDF5" stroke-width="0.5"/>
<g clip-path="url(#clip0_646_2)">
<rect x="-298" y="-11" width="330" height="42" rx="3" fill="white"/>
<path d="M-5 -11H29.152C30.8088 -11 32.152 -9.65685 32.152 -8V28C32.152 29.6569 30.8088 31 29.152 31H-5V-11Z" fill="white"/>
<path d="M9.99999 15C4.89999 15 1.45624 10.3812 1.30936 10.1844C1.27025 10.1309 1.24918 10.0663 1.24918 10C1.24918 9.93371 1.27025 9.86914 1.30936 9.81563C1.45624 9.61875 4.89999 5 9.99999 5C15.1 5 18.5437 9.61875 18.6906 9.81563C18.7297 9.86914 18.7508 9.93371 18.7508 10C18.7508 10.0663 18.7297 10.1309 18.6906 10.1844C18.5437 10.3812 15.1 15 9.99999 15ZM1.95936 10C2.65624 10.8531 5.78124 14.375 9.99999 14.375C14.2187 14.375 17.3437 10.8562 18.0406 10C17.3437 9.14687 14.2187 5.625 9.99999 5.625C5.78124 5.625 2.65624 9.14375 1.95936 10ZM9.99999 13.75C9.25831 13.75 8.53328 13.5301 7.9166 13.118C7.29991 12.706 6.81927 12.1203 6.53544 11.4351C6.25161 10.7498 6.17735 9.99584 6.32204 9.26841C6.46674 8.54098 6.82389 7.8728 7.34834 7.34835C7.87278 6.8239 8.54097 6.46675 9.2684 6.32206C9.99583 6.17736 10.7498 6.25162 11.4351 6.53545C12.1203 6.81928 12.7059 7.29993 13.118 7.91661C13.5301 8.5333 13.75 9.25832 13.75 10C13.75 10.9946 13.3549 11.9484 12.6516 12.6517C11.9484 13.3549 10.9945 13.75 9.99999 13.75ZM9.99999 6.875C9.38192 6.875 8.77773 7.05828 8.26383 7.40166C7.74993 7.74504 7.34939 8.2331 7.11286 8.80411C6.87634 9.37513 6.81445 10.0035 6.93503 10.6097C7.05561 11.2158 7.35324 11.7727 7.79028 12.2097C8.22732 12.6467 8.78414 12.9444 9.39033 13.065C9.99652 13.1855 10.6249 13.1236 11.1959 12.8871C11.7669 12.6506 12.255 12.2501 12.5983 11.7362C12.9417 11.2223 13.125 10.6181 13.125 10C13.125 9.1712 12.7957 8.37634 12.2097 7.79029C11.6236 7.20424 10.8288 6.875 9.99999 6.875Z" fill="#5F6B8A"/>
</g>
<defs>
<clipPath id="clip0_646_2">
<rect width="330" height="42" fill="white" transform="translate(-298 -11)"/>
</clipPath>
</defs>
</svg>
